<?xml version="1.0" encoding="UTF-8"?>
<svg width="512" height="512" viewBox="0 0 512 512" fill="none" xmlns="http://www.w3.org/2000/svg">
  <rect width="512" height="512" rx="128" fill="#0F172A"/>
  <path d="M256 80C158.8 80 80 158.8 80 256C80 353.2 158.8 432 256 432C353.2 432 432 353.2 432 256C432 158.8 353.2 80 256 80ZM256 384C185.3 384 128 326.7 128 256C128 185.3 185.3 128 256 128C326.7 128 384 185.3 384 256C384 326.7 326.7 384 256 384Z" fill="#14B8A6"/>
  <path d="M256 160C202.9 160 160 202.9 160 256C160 309.1 202.9 352 256 352C309.1 352 352 309.1 352 256C352 202.9 309.1 160 256 160ZM256 304C229.5 304 208 282.5 208 256C208 229.5 229.5 208 256 208C282.5 208 304 229.5 304 256C304 282.5 282.5 304 256 304Z" fill="#2DD4BF"/>
  <circle cx="256" cy="256" r="24" fill="#5EEAD4"/>
  <path d="M256 200V312" stroke="#5EEAD4" stroke-width="8" stroke-linecap="round"/>
  <path d="M200 256H312" stroke="#5EEAD4" stroke-width="8" stroke-linecap="round"/>
</svg>
